# xmcd
#
# Track frame offsets:
#  150
#  12472
#  22715
#  35042
#  48192
#  63280
#  72727
#  89540
#  103377
#  113102
#  122430
#  137530
#  147557
#  160322
#  172897
#
# Disc length: 2478 seconds
#
# Revision: 0
# Processed by: cddbd v1.5.1PL2 Copyright (c) Steve Scherf et al.
# Submitted via: Collectorz.com_Music_Collector 6.9
#
DISCID=d009ac0f
DTITLE=Ike and Tina Turner - Too Hot To Hold
DYEAR=2003
DGENRE=
TTITLE0=Poor Little Fool
TTITLE1=Shake Your Tail Feather
TTITLE2=Rock Me Baby
TTITLE3=It's Gonna Work Out Fine
TTITLE4=Crazy 'bout You Baby
TTITLE5=Too Hot To Hold
TTITLE6=I Smell Trouble
TTITLE7=It Sho Ain't Me
TTITLE8=Beauty Is Only Skin Deep
TTITLE9=Ain't Nobody's Business
TTITLE10=Funky Mule
TTITLE11=I'm Fed Up
TTITLE12=A Fool In Love
TTITLE13=I Betta Get To Steppin'
TTITLE14=Never Been To Spain
EXTD=
EXTT0=
EXTT1=
EXTT2=
EXTT3=
EXTT4=
EXTT5=
EXTT6=
EXTT7=
EXTT8=
EXTT9=
EXTT10=
EXTT11=
EXTT12=
EXTT13=
EXTT14=
PLAYORDER=
